# xmcd
#
# Track frame offsets:
#	150
#	17935
#	35662
#	52624
#	69105
#	89379
#	105668
#	124008
#	140251
#	156622
#	175201
#	192998
#	212079
#	228302
#
# Disc length: 3243 seconds
#
# Revision: 1
# Processed by: cddbd v1.5.2PL0 Copyright (c) Steve Scherf et al.
# Submitted via: EasyCDDAExtractor 15.3.0.1
#
DISCID=bb0ca90e
DTITLE=Varios Artistas - Canciones De Amor En Pop
DYEAR=2013
DGENRE=Latin
TTITLE0=Sin Bandera - Contigo
TTITLE1=Cristian Castro - Lo Mejor De Mi
TTITLE2=Danny Rivera - Cualquier Dia
TTITLE3=Fey - Canela
TTITLE4=Diego Torres - Si Tu Te Vas
TTITLE5=Alejandra Guzman - Quiero Estar Contigo
TTITLE6=Alexandre Pires - Amame
TTITLE7=Rosario - El Beso (Contigo Me Voy)
TTITLE8=Ednita Nazario - La Fuerza De Un Te Quiero
TTITLE9=Noel Schajris - Si Tu Supieras
TTITLE10=Donato Poveda - Bohemio Enamorado
TTITLE11=Camila - Besame
TTITLE12=Nota - Todo Cambio
TTITLE13=Reik - Tu Mirada
EXTD=
EXTT0=
EXTT1=
EXTT2=
EXTT3=
EXTT4=
EXTT5=
EXTT6=
EXTT7=
EXTT8=
EXTT9=
EXTT10=
EXTT11=
EXTT12=
EXTT13=
PLAYORDER=
